<?xml version="1.0" encoding="UTF-8"?>
<svg id="Layer_1" data-name="Layer 1" xmlns="http://www.w3.org/2000/svg" viewBox="0 0 244.06 42">
  <defs>
    <style>
      .cls-1 {
        fill: none;
      }
    </style>
  </defs>
  <rect class="cls-1" x=".01" y="-.67" width="275.98" height="41.7"/>
  <path d="M21.99.15C10.4.15,1,9.55,1,21.14c0,3.1.67,6.05,1.88,8.7,1.17-1.15,3.82-3.84,5.02-5.4,1.5-1.95,5.4-6.45,8.4-8.1,2.4-1.32,5.5-4.85,6.75-6.45.15-2.1,2.85-5.55,3.3-5.7.36-.12,1.45,3.45,1.95,5.25l1.8-2.1v3.9c1.3,1.35,3.99,4.14,4.35,4.5.36.36.65,1.85.75,2.55,1.65,1.35,4.95,4.11,4.95,4.35,0,.3-.75,1.95-2.25,3-1.5,1.05-6.3.75-7.5.75s-5.85-7.95-6.45-7.95c-.48,0-.7.8-.75,1.2-.2.65-.93,1.95-2.25,1.95-1.65,0-1.8-.6-2.85-1.2-1.05-.6-1.95-.9-1.95-.75s1.95,3.45,1.95,3.9-.9,1.65-1.2,2.4c-.3.75.15,2.7.3,3.15.15.45-.3,1.65.3,2.7.48.84,3.6.95,5.1.9,0,3.96,1.9,7.76,2.85,9.16,9.95-1.65,17.54-10.29,17.54-20.71C42.99,9.55,33.59.15,21.99.15Z"/>
  <g>
    <path d="M67.04,17.05v3.22h6.26v3.06h-6.26v5.84h-3.96v-15.19h11.8v3.06h-7.85Z"/>
    <path d="M87.04,17.68v11.5h-3.5l-.12-2.14c-.71,1.61-2.12,2.37-3.98,2.37-2.35,0-3.94-1.15-3.94-4.05v-7.69h3.91v6.69c0,1.57.58,2.05,1.59,2.05,1.22,0,2.12-.8,2.12-2.65v-6.1h3.91Z"/>
    <path d="M98.21,17.7l-.41,3.31c-.3-.18-.85-.35-1.45-.35-1.38,0-2.58.9-2.58,2.71v5.8h-3.91v-11.5h3.45l.16,2.46c.58-1.7,1.7-2.69,3.5-2.69.58,0,.99.12,1.24.25Z"/>
    <path d="M112.06,26.12v3.06h-12.13v-15.19h11.83v3.06h-7.87v3.08h6.26v2.88h-6.26v3.11h8.17Z"/>
    <path d="M125.41,17.68l-4.14,11.5h-4.67l-4.14-11.5h4.12l2.37,9.02,2.42-9.02h4.05Z"/>
    <path d="M137.17,24.55h-7.85c.25,1.5,1.1,2.09,2.42,2.09,1.15,0,1.86-.46,2.12-1.27l3.18,1.01c-.67,2-2.62,3.01-5.29,3.01-4.03,0-6.21-2.19-6.21-5.98s2.16-5.98,6.01-5.98,5.75,2.19,5.75,5.82c0,.39-.05.99-.12,1.29ZM129.33,22.44h4.33c-.21-1.47-.92-2.25-2.14-2.25s-1.98.69-2.19,2.25Z"/>
    <path d="M147.37,17.7l-.41,3.31c-.3-.18-.85-.35-1.45-.35-1.38,0-2.58.9-2.58,2.71v5.8h-3.91v-11.5h3.45l.16,2.46c.58-1.7,1.7-2.69,3.5-2.69.58,0,.99.12,1.24.25Z"/>
    <path d="M159.39,17.05v3.22h6.26v3.06h-6.26v5.84h-3.96v-15.19h11.8v3.06h-7.85Z"/>
    <path d="M177.22,17.7l-.41,3.31c-.3-.18-.85-.35-1.45-.35-1.38,0-2.58.9-2.58,2.71v5.8h-3.91v-11.5h3.45l.16,2.46c.58-1.7,1.7-2.69,3.5-2.69.58,0,.99.12,1.24.25Z"/>
    <path d="M178.45,14.48c0-1.31.69-1.89,2.28-1.89s2.28.58,2.28,1.89-.69,1.86-2.28,1.86-2.28-.58-2.28-1.86ZM182.68,29.18h-3.91v-11.5h3.91v11.5Z"/>
    <path d="M195.64,24.55h-7.85c.25,1.5,1.1,2.09,2.42,2.09,1.15,0,1.86-.46,2.12-1.27l3.18,1.01c-.67,2-2.62,3.01-5.29,3.01-4.03,0-6.21-2.19-6.21-5.98s2.16-5.98,6.01-5.98,5.75,2.19,5.75,5.82c0,.39-.05.99-.12,1.29ZM187.79,22.44h4.33c-.21-1.47-.92-2.25-2.14-2.25s-1.98.69-2.19,2.25Z"/>
    <path d="M208.55,21.52v7.66h-3.91v-6.58c0-1.63-.67-2.16-1.63-2.16-1.13,0-2.07.76-2.07,2.67v6.07h-3.91v-11.5h3.5l.12,2.23c.71-1.63,2.12-2.46,3.93-2.46,2.37,0,3.98,1.4,3.98,4.07Z"/>
    <path d="M222.96,12.8v16.38h-3.52l-.16-2.19c-.64,1.45-1.96,2.42-3.73,2.42-2.99,0-4.74-2.19-4.74-5.94s1.79-6.03,4.74-6.03c1.68,0,2.88.87,3.5,2.19v-6.83h3.91ZM219.02,23.54l.02.02v-.3l-.02.05c0-1.91-.76-2.99-2.12-2.99s-2.16.94-2.16,3.11.83,3.11,2.16,3.11,2.12-1.01,2.12-2.99Z"/>
    <path d="M224.89,27.38l2.03-2.21c.69,1.15,1.93,1.63,3.41,1.63,1.08,0,1.73-.32,1.73-.81,0-.44-.55-.71-2.09-1.04-3.5-.69-4.76-1.82-4.76-3.7s1.79-3.82,5.54-3.82c2.76,0,4.28.81,5.27,2.16l-2.02,1.98c-.74-1.08-1.75-1.54-3.13-1.54-1.15,0-1.75.41-1.75.87s.51.76,2.12,1.06c3.41.6,4.76,1.68,4.76,3.66,0,2.12-1.77,3.77-5.48,3.77-2.53,0-4.44-.6-5.62-2.03Z"/>
  </g>
</svg>