<svg width="146" height="34" viewBox="0 0 146 34" fill="none" xmlns="http://www.w3.org/2000/svg">
<path d="M8.04 23.968L5.376 26.704V31H2.256V14.2H5.376V22.816L13.68 14.2H17.184L10.128 21.712L17.616 31H13.968L8.04 23.968ZM34.2298 27.112H25.8298L24.1738 31H20.9578L28.5178 14.2H31.5898L39.1738 31H35.9098L34.2298 27.112ZM33.1978 24.664L30.0298 17.32L26.8858 24.664H33.1978ZM45.6304 14.2H48.7504V31H45.6304V14.2ZM68.1984 31L63.6384 24.616L59.1264 31H55.5744L61.8144 22.432L55.9104 14.2H59.4384L63.7344 20.176L67.9824 14.2H71.3664L65.4864 22.312L71.7984 31H68.1984ZM85.5647 31.24C83.2447 31.24 81.4367 30.592 80.1407 29.296C78.8447 27.984 78.1967 26.112 78.1967 23.68V14.2H81.3167V23.56C81.3167 26.856 82.7407 28.504 85.5887 28.504C88.4207 28.504 89.8367 26.856 89.8367 23.56V14.2H92.9087V23.68C92.9087 26.112 92.2607 27.984 90.9647 29.296C89.6847 30.592 87.8847 31.24 85.5647 31.24ZM112.143 27.112H103.743L102.087 31H98.8706L106.431 14.2H109.503L117.087 31H113.823L112.143 27.112ZM111.111 24.664L107.943 17.32L104.799 24.664H111.111ZM138.471 14.2V31H135.903L126.639 19.624V31H123.543V14.2H126.111L135.375 25.576V14.2H138.471Z" fill="#F0F0F0"/>
<path d="M42.8055 6.50607C47.655 5.60805 47.893 1.95981 48.0424 0.565035C48.439 5.12024 51.3944 6.54692 52.7296 7.43954C48.8045 7.77408 47.8543 11.364 47.2786 13.2196C47.2636 8.14586 44.1097 7.20793 42.8055 6.50607Z" fill="#F0F0F0"/>
</svg>
