<svg width="146" height="34" viewBox="0 0 146 34" fill="none" xmlns="http://www.w3.org/2000/svg">
<path d="M5.04 27.04L4.872 23.344L13.68 14.2H17.184L9.864 21.976L8.136 23.872L5.04 27.04ZM2.256 31V14.2H5.376V31H2.256ZM13.968 31L7.536 23.344L9.6 21.064L17.616 31H13.968ZM20.9578 31L28.5178 14.2H31.5898L39.1738 31H35.9098L29.4058 15.856H30.6538L24.1738 31H20.9578ZM24.4378 27.112L25.2778 24.664H34.3498L35.1898 27.112H24.4378ZM45.6304 31V14.2H48.7504V31H45.6304ZM55.5744 31L62.6544 21.256V23.608L55.9104 14.2H59.4384L64.4544 21.16L63.0144 21.184L67.9824 14.2H71.3664L64.6704 23.44V21.184L71.7984 31H68.1984L62.9184 23.608H64.3344L59.1264 31H55.5744ZM85.5647 31.24C83.2607 31.24 81.4527 30.592 80.1407 29.296C78.8447 28 78.1967 26.128 78.1967 23.68V14.2H81.3167V23.56C81.3167 25.288 81.6847 26.544 82.4207 27.328C83.1727 28.112 84.2287 28.504 85.5887 28.504C86.9487 28.504 87.9967 28.112 88.7327 27.328C89.4687 26.544 89.8367 25.288 89.8367 23.56V14.2H92.9087V23.68C92.9087 26.128 92.2527 28 90.9407 29.296C89.6447 30.592 87.8527 31.24 85.5647 31.24ZM98.8706 31L106.431 14.2H109.503L117.087 31H113.823L107.319 15.856H108.567L102.087 31H98.8706ZM102.351 27.112L103.191 24.664H112.263L113.103 27.112H102.351ZM123.543 31V14.2H126.111L136.647 27.136H135.375V14.2H138.471V31H135.903L125.367 18.064H126.639V31H123.543Z" fill="#947E4B"/>
<path d="M42.8055 6.50607C47.655 5.60805 47.893 1.95981 48.0424 0.565035C48.439 5.12024 51.3944 6.54692 52.7296 7.43954C48.8045 7.77408 47.8543 11.364 47.2786 13.2196C47.2636 8.14586 44.1097 7.20793 42.8055 6.50607Z" fill="#947E4B"/>
</svg>
